<svg xmlns="http://www.w3.org/2000/svg" xmlns:xlink="http://www.w3.org/1999/xlink" width="500" zoomAndPan="magnify" viewBox="0 0 375 374.999991" height="500" preserveAspectRatio="xMidYMid meet" version="1.0"><defs><g/></defs><rect x="-37.5" width="450" fill="#ffffff" y="-37.499999" height="449.999989" fill-opacity="1"/><rect x="-37.5" width="450" fill="#6142fb" y="-37.499999" height="449.999989" fill-opacity="1"/><g fill="#ffffff" fill-opacity="1"><g transform="translate(101.296873, 259.874983)"><g><path d="M 45.597656 0.800781 C 48.796875 0.800781 53.199219 0.800781 58.597656 0 C 63.597656 -0.800781 66.796875 -1.398438 68 -6.398438 C 70 -15.199219 73 -32 75.398438 -45.398438 C 78.398438 -61 81.398438 -76 85.996094 -76 C 90.597656 -76 93.398438 -61 96.597656 -45.398438 C 98.996094 -33.199219 101.996094 -15.199219 103.796875 -6.398438 C 104.996094 -1.398438 108.199219 -0.601562 113.195312 0 C 118.796875 0.601562 123.597656 0.800781 126.796875 0.800781 C 129.796875 0.800781 134.796875 0.601562 138.597656 0.199219 C 141.796875 -0.398438 143.597656 -2.199219 144.597656 -5 C 153.195312 -34.398438 164.394531 -87.597656 169.195312 -134.398438 C 169.597656 -137.597656 168.195312 -139.597656 165.597656 -139.996094 C 161.195312 -140.796875 155.796875 -140.796875 152.996094 -140.796875 C 149.996094 -140.796875 144.996094 -140.796875 140.796875 -139.996094 C 137.996094 -139.597656 135.996094 -137.796875 135.796875 -134.597656 C 135.398438 -118.597656 131.597656 -96.199219 129.195312 -82.796875 C 126.996094 -64.796875 124.796875 -55 121.398438 -55 C 117.398438 -55 114.996094 -68.597656 111.996094 -81.796875 C 109.199219 -91.597656 104.996094 -104.996094 101.796875 -115.398438 C 98.199219 -127.398438 94.597656 -132.996094 85.996094 -132.996094 C 77.597656 -132.996094 73.796875 -127.398438 70.199219 -115.398438 C 67 -105.199219 62.597656 -91.597656 59.796875 -81.796875 C 56.796875 -69 54.597656 -55 50.597656 -55 C 47.199219 -55 44.800781 -66.398438 42.800781 -83.398438 C 40.398438 -96.796875 36.800781 -118.996094 36 -134.597656 C 35.800781 -137.996094 34.199219 -139.796875 31.398438 -140.195312 C 27.199219 -140.796875 22.597656 -140.796875 19.597656 -140.796875 C 16.199219 -140.796875 11 -140.796875 6.800781 -139.996094 C 4.199219 -139.597656 2.800781 -137.597656 3.199219 -134.398438 C 8.199219 -87.597656 19 -35.199219 28 -5.199219 C 29 -2.199219 31 -0.601562 33.800781 0 C 37.398438 0.601562 42.800781 0.800781 45.597656 0.800781 Z M 45.597656 0.800781 "/></g></g></g></svg>